<?xml version="1.0" standalone="no"?>
<!DOCTYPE svg PUBLIC "-//W3C//DTD SVG 1.1//EN" "http://www.w3.org/Graphics/SVG/1.1/DTD/svg11.dtd">
<svg width="600mm" height="166mm" viewBox="0 -194 600 166" xmlns="http://www.w3.org/2000/svg" version="1.1">
<title>OpenSCAD Model</title>
<path d="
M 600,-194 L 0,-194 L 0,-192 L 600,-192 z
M 424.5,-162.5 L 423.809,-163.451 L 422.691,-163.088 L 422.691,-161.912 L 423.809,-161.549 z
M 277.5,-162.5 L 276.809,-163.451 L 275.691,-163.088 L 275.691,-161.912 L 276.809,-161.549 z
M 144.5,-162.5 L 143.809,-163.451 L 142.691,-163.088 L 142.691,-161.912 L 143.809,-161.549 z
M 557.5,-162.5 L 556.809,-163.451 L 555.691,-163.088 L 555.691,-161.912 L 556.809,-161.549 z
M 137.5,-162.5 L 136.809,-163.451 L 135.691,-163.088 L 135.691,-161.912 L 136.809,-161.549 z
M 4.5,-162.5 L 3.80901,-163.451 L 2.69098,-163.088 L 2.69098,-161.912 L 3.80901,-161.549 z
M 284.5,-162.5 L 283.809,-163.451 L 282.691,-163.088 L 282.691,-161.912 L 283.809,-161.549 z
M 417.5,-162.5 L 416.809,-163.451 L 415.691,-163.088 L 415.691,-161.912 L 416.809,-161.549 z
M 368.541,-38.9366 L 380,-44.0385 L 390.148,-51.4113 L 398.541,-60.7329 L 404.813,-71.5958 L 408.689,-83.5253
 L 410,-96 L 408.689,-108.475 L 404.813,-120.404 L 398.541,-131.267 L 390.148,-140.589 L 380,-147.962
 L 368.541,-153.063 L 356.272,-155.671 L 343.728,-155.671 L 331.459,-153.063 L 320,-147.962 L 309.852,-140.589
 L 301.459,-131.267 L 295.187,-120.404 L 291.311,-108.475 L 290,-96 L 291.311,-83.5253 L 295.187,-71.5958
 L 301.459,-60.7329 L 309.852,-51.4113 L 320,-44.0385 L 331.459,-38.9366 L 343.728,-36.3287 L 356.272,-36.3287
 z
M 88.541,-38.9366 L 100,-44.0385 L 110.148,-51.4113 L 118.541,-60.7329 L 124.813,-71.5958 L 128.689,-83.5253
 L 130,-96 L 128.689,-108.475 L 124.813,-120.404 L 118.541,-131.267 L 110.148,-140.589 L 100,-147.962
 L 88.541,-153.063 L 76.2717,-155.671 L 63.7283,-155.671 L 51.459,-153.063 L 40,-147.962 L 29.8522,-140.589
 L 21.459,-131.267 L 15.1873,-120.404 L 11.3111,-108.475 L 10,-96 L 11.3111,-83.5253 L 15.1873,-71.5958
 L 21.459,-60.7329 L 29.8522,-51.4113 L 40,-44.0385 L 51.459,-38.9366 L 63.7283,-36.3287 L 76.2717,-36.3287
 z
M 508.541,-38.9366 L 520,-44.0385 L 530.148,-51.4113 L 538.541,-60.7329 L 544.813,-71.5958 L 548.689,-83.5253
 L 550,-96 L 548.689,-108.475 L 544.813,-120.404 L 538.541,-131.267 L 530.148,-140.589 L 520,-147.962
 L 508.541,-153.063 L 496.272,-155.671 L 483.728,-155.671 L 471.459,-153.063 L 460,-147.962 L 449.852,-140.589
 L 441.459,-131.267 L 435.187,-120.404 L 431.311,-108.475 L 430,-96 L 431.311,-83.5253 L 435.187,-71.5958
 L 441.459,-60.7329 L 449.852,-51.4113 L 460,-44.0385 L 471.459,-38.9366 L 483.728,-36.3287 L 496.272,-36.3287
 z
M 228.541,-38.9366 L 240,-44.0385 L 250.148,-51.4113 L 258.541,-60.7329 L 264.813,-71.5958 L 268.689,-83.5253
 L 270,-96 L 268.689,-108.475 L 264.813,-120.404 L 258.541,-131.267 L 250.148,-140.589 L 240,-147.962
 L 228.541,-153.063 L 216.272,-155.671 L 203.728,-155.671 L 191.459,-153.063 L 180,-147.962 L 169.852,-140.589
 L 161.459,-131.267 L 155.187,-120.404 L 151.311,-108.475 L 150,-96 L 151.311,-83.5253 L 155.187,-71.5958
 L 161.459,-60.7329 L 169.852,-51.4113 L 180,-44.0385 L 191.459,-38.9366 L 203.728,-36.3287 L 216.272,-36.3287
 z
M 284.5,-29.5 L 283.809,-30.451 L 282.691,-30.0878 L 282.691,-28.9122 L 283.809,-28.5489 z
M 137.5,-29.5 L 136.809,-30.451 L 135.691,-30.0878 L 135.691,-28.9122 L 136.809,-28.5489 z
M 424.5,-29.5 L 423.809,-30.451 L 422.691,-30.0878 L 422.691,-28.9122 L 423.809,-28.5489 z
M 557.5,-29.5 L 556.809,-30.451 L 555.691,-30.0878 L 555.691,-28.9122 L 556.809,-28.5489 z
M 4.5,-29.5 L 3.80901,-30.451 L 2.69098,-30.0878 L 2.69098,-28.9122 L 3.80901,-28.5489 z
M 417.5,-29.5 L 416.809,-30.451 L 415.691,-30.0878 L 415.691,-28.9122 L 416.809,-28.5489 z
M 277.5,-29.5 L 276.809,-30.451 L 275.691,-30.0878 L 275.691,-28.9122 L 276.809,-28.5489 z
M 144.5,-29.5 L 143.809,-30.451 L 142.691,-30.0878 L 142.691,-28.9122 L 143.809,-28.5489 z
" stroke="black" fill="lightgray" stroke-width="0.5"/>
</svg>
