<?xml version="1.0" standalone="no"?>
<!DOCTYPE svg PUBLIC "-//W3C//DTD SVG 1.1//EN" "http://www.w3.org/Graphics/SVG/1.1/DTD/svg11.dtd">
<svg width="600mm" height="140mm" viewBox="0 -142 600 140" xmlns="http://www.w3.org/2000/svg" version="1.1">
<title>OpenSCAD Model</title>
<path d="
M 600,-142 L 0,-142 L 0,-140 L 600,-140 z
M 137.5,-136.5 L 136.809,-137.451 L 135.691,-137.088 L 135.691,-135.912 L 136.809,-135.549 z
M 4.5,-136.5 L 3.80901,-137.451 L 2.69098,-137.088 L 2.69098,-135.912 L 3.80901,-135.549 z
M 277.5,-136.5 L 276.809,-137.451 L 275.691,-137.088 L 275.691,-135.912 L 276.809,-135.549 z
M 144.5,-136.5 L 143.809,-137.451 L 142.691,-137.088 L 142.691,-135.912 L 143.809,-135.549 z
M 424.5,-136.5 L 423.809,-137.451 L 422.691,-137.088 L 422.691,-135.912 L 423.809,-135.549 z
M 417.5,-136.5 L 416.809,-137.451 L 415.691,-137.088 L 415.691,-135.912 L 416.809,-135.549 z
M 284.5,-136.5 L 283.809,-137.451 L 282.691,-137.088 L 282.691,-135.912 L 283.809,-135.549 z
M 557.5,-136.5 L 556.809,-137.451 L 555.691,-137.088 L 555.691,-135.912 L 556.809,-135.549 z
M 88.541,-12.9366 L 100,-18.0385 L 110.148,-25.4113 L 118.541,-34.7329 L 124.813,-45.5958 L 128.689,-57.5253
 L 130,-70 L 128.689,-82.4747 L 124.813,-94.4042 L 118.541,-105.267 L 110.148,-114.589 L 100,-121.962
 L 88.541,-127.063 L 76.2717,-129.671 L 63.7283,-129.671 L 51.459,-127.063 L 40,-121.962 L 29.8522,-114.589
 L 21.459,-105.267 L 15.1873,-94.4042 L 11.3111,-82.4747 L 10,-70 L 11.3111,-57.5253 L 15.1873,-45.5958
 L 21.459,-34.7329 L 29.8522,-25.4113 L 40,-18.0385 L 51.459,-12.9366 L 63.7283,-10.3287 L 76.2717,-10.3287
 z
M 228.541,-12.9366 L 240,-18.0385 L 250.148,-25.4113 L 258.541,-34.7329 L 264.813,-45.5958 L 268.689,-57.5253
 L 270,-70 L 268.689,-82.4747 L 264.813,-94.4042 L 258.541,-105.267 L 250.148,-114.589 L 240,-121.962
 L 228.541,-127.063 L 216.272,-129.671 L 203.728,-129.671 L 191.459,-127.063 L 180,-121.962 L 169.852,-114.589
 L 161.459,-105.267 L 155.187,-94.4042 L 151.311,-82.4747 L 150,-70 L 151.311,-57.5253 L 155.187,-45.5958
 L 161.459,-34.7329 L 169.852,-25.4113 L 180,-18.0385 L 191.459,-12.9366 L 203.728,-10.3287 L 216.272,-10.3287
 z
M 508.541,-12.9366 L 520,-18.0385 L 530.148,-25.4113 L 538.541,-34.7329 L 544.813,-45.5958 L 548.689,-57.5253
 L 550,-70 L 548.689,-82.4747 L 544.813,-94.4042 L 538.541,-105.267 L 530.148,-114.589 L 520,-121.962
 L 508.541,-127.063 L 496.272,-129.671 L 483.728,-129.671 L 471.459,-127.063 L 460,-121.962 L 449.852,-114.589
 L 441.459,-105.267 L 435.187,-94.4042 L 431.311,-82.4747 L 430,-70 L 431.311,-57.5253 L 435.187,-45.5958
 L 441.459,-34.7329 L 449.852,-25.4113 L 460,-18.0385 L 471.459,-12.9366 L 483.728,-10.3287 L 496.272,-10.3287
 z
M 368.541,-12.9366 L 380,-18.0385 L 390.148,-25.4113 L 398.541,-34.7329 L 404.813,-45.5958 L 408.689,-57.5253
 L 410,-70 L 408.689,-82.4747 L 404.813,-94.4042 L 398.541,-105.267 L 390.148,-114.589 L 380,-121.962
 L 368.541,-127.063 L 356.272,-129.671 L 343.728,-129.671 L 331.459,-127.063 L 320,-121.962 L 309.852,-114.589
 L 301.459,-105.267 L 295.187,-94.4042 L 291.311,-82.4747 L 290,-70 L 291.311,-57.5253 L 295.187,-45.5958
 L 301.459,-34.7329 L 309.852,-25.4113 L 320,-18.0385 L 331.459,-12.9366 L 343.728,-10.3287 L 356.272,-10.3287
 z
M 424.5,-3.5 L 423.809,-4.45105 L 422.691,-4.08778 L 422.691,-2.9122 L 423.809,-2.54893 z
M 557.5,-3.5 L 556.809,-4.45105 L 555.691,-4.08778 L 555.691,-2.9122 L 556.809,-2.54893 z
M 284.5,-3.5 L 283.809,-4.45105 L 282.691,-4.08778 L 282.691,-2.9122 L 283.809,-2.54893 z
M 417.5,-3.5 L 416.809,-4.45105 L 415.691,-4.08778 L 415.691,-2.9122 L 416.809,-2.54893 z
M 144.5,-3.5 L 143.809,-4.45105 L 142.691,-4.08778 L 142.691,-2.9122 L 143.809,-2.54893 z
M 277.5,-3.5 L 276.809,-4.45105 L 275.691,-4.08778 L 275.691,-2.9122 L 276.809,-2.54893 z
M 4.5,-3.5 L 3.80901,-4.45105 L 2.69098,-4.08778 L 2.69098,-2.9122 L 3.80901,-2.54893 z
M 137.5,-3.5 L 136.809,-4.45105 L 135.691,-4.08778 L 135.691,-2.9122 L 136.809,-2.54893 z
" stroke="black" fill="lightgray" stroke-width="0.5"/>
</svg>
