<?xml version="1.0" standalone="no"?>
<!DOCTYPE svg PUBLIC "-//W3C//DTD SVG 1.1//EN" "http://www.w3.org/Graphics/SVG/1.1/DTD/svg11.dtd">
<svg width="420mm" height="140mm" viewBox="0 -140 420 140" xmlns="http://www.w3.org/2000/svg" version="1.1">
<title>OpenSCAD Model</title>
<path d="
M 0,-70 L 1.52966,-84.5538 L 6.0518,-98.4716 L 13.3688,-111.145 L 23.1609,-122.02 L 35,-130.622
 L 48.3688,-136.574 L 62.683,-139.617 L 77.317,-139.617 L 91.6312,-136.574 L 105,-130.622 L 116.839,-122.02
 L 126.631,-111.145 L 133.948,-98.4716 L 138.47,-84.5538 L 140,-70 L 141.53,-84.5538 L 146.052,-98.4716
 L 153.369,-111.145 L 163.161,-122.02 L 175,-130.622 L 188.369,-136.574 L 202.683,-139.617 L 217.317,-139.617
 L 231.631,-136.574 L 245,-130.622 L 256.839,-122.02 L 266.631,-111.145 L 273.948,-98.4716 L 278.47,-84.5538
 L 280,-70 L 281.53,-84.5538 L 286.052,-98.4716 L 293.369,-111.145 L 303.161,-122.02 L 315,-130.622
 L 328.369,-136.574 L 342.683,-139.617 L 357.317,-139.617 L 371.631,-136.574 L 385,-130.622 L 396.839,-122.02
 L 406.631,-111.145 L 413.948,-98.4716 L 418.47,-84.5538 L 420,-70 L 420,-140 L 0,-140
 z
M 2.69098,-135.912 L 2.69098,-137.088 L 3.80901,-137.451 L 4.5,-136.5 L 3.80901,-135.549 z
M 282.691,-135.912 L 282.691,-137.088 L 283.809,-137.451 L 284.5,-136.5 L 283.809,-135.549 z
M 415.691,-135.912 L 415.691,-137.088 L 416.809,-137.451 L 417.5,-136.5 L 416.809,-135.549 z
M 142.691,-135.912 L 142.691,-137.088 L 143.809,-137.451 L 144.5,-136.5 L 143.809,-135.549 z
M 275.691,-135.912 L 275.691,-137.088 L 276.809,-137.451 L 277.5,-136.5 L 276.809,-135.549 z
M 135.691,-135.912 L 135.691,-137.088 L 136.809,-137.451 L 137.5,-136.5 L 136.809,-135.549 z
M 273.948,-41.5284 L 266.631,-28.855 L 256.839,-17.9799 L 245,-9.37822 L 231.631,-3.42604 L 217.317,-0.383453
 L 202.683,-0.383453 L 188.369,-3.42604 L 175,-9.37822 L 163.161,-17.9799 L 153.369,-28.855 L 146.052,-41.5284
 L 141.53,-55.4462 L 140,-70 L 138.47,-55.4462 L 133.948,-41.5284 L 126.631,-28.855 L 116.839,-17.9799
 L 105,-9.37822 L 91.6312,-3.42604 L 77.317,-0.383453 L 62.683,-0.383453 L 48.3688,-3.42604 L 35,-9.37822
 L 23.1609,-17.9799 L 13.3688,-28.855 L 6.0518,-41.5284 L 1.52966,-55.4462 L 0,-70 L 0,-0
 L 420,-0 L 420,-70 L 418.47,-55.4462 L 413.948,-41.5284 L 406.631,-28.855 L 396.839,-17.9799
 L 385,-9.37822 L 371.631,-3.42604 L 357.317,-0.383453 L 342.683,-0.383453 L 328.369,-3.42604 L 315,-9.37822
 L 303.161,-17.9799 L 293.369,-28.855 L 286.052,-41.5284 L 281.53,-55.4462 L 280,-70 L 278.47,-55.4462
 z
M 142.691,-2.9122 L 142.691,-4.08778 L 143.809,-4.45105 L 144.5,-3.5 L 143.809,-2.54893 z
M 275.691,-2.9122 L 275.691,-4.08778 L 276.809,-4.45105 L 277.5,-3.5 L 276.809,-2.54893 z
M 135.691,-2.9122 L 135.691,-4.08778 L 136.809,-4.45105 L 137.5,-3.5 L 136.809,-2.54893 z
M 282.691,-2.9122 L 282.691,-4.08778 L 283.809,-4.45105 L 284.5,-3.5 L 283.809,-2.54893 z
M 415.691,-2.9122 L 415.691,-4.08778 L 416.809,-4.45105 L 417.5,-3.5 L 416.809,-2.54893 z
M 2.69098,-2.9122 L 2.69098,-4.08778 L 3.80901,-4.45105 L 4.5,-3.5 L 3.80901,-2.54893 z
" stroke="black" fill="lightgray" stroke-width="0.5"/>
</svg>
