<?xml version="1.0" standalone="no"?>
<!DOCTYPE svg PUBLIC "-//W3C//DTD SVG 1.1//EN" "http://www.w3.org/Graphics/SVG/1.1/DTD/svg11.dtd">
<svg width="508mm" height="140mm" viewBox="0 -140 508 140" xmlns="http://www.w3.org/2000/svg" version="1.1">
<title>OpenSCAD Model</title>
<path d="
M 508,-140 L 0,-140 L 0,-0 L 508,-0 z
M 329.447,-131.159 L 328.744,-132.856 L 329.447,-134.553 L 331.144,-135.256 L 332.841,-134.553 L 333.544,-132.856
 L 332.841,-131.159 L 331.144,-130.456 z
M 189.447,-131.159 L 188.744,-132.856 L 189.447,-134.553 L 191.144,-135.256 L 192.841,-134.553 L 193.544,-132.856
 L 192.841,-131.159 L 191.144,-130.456 z
M 455.159,-131.159 L 454.456,-132.856 L 455.159,-134.553 L 456.856,-135.256 L 458.553,-134.553 L 459.256,-132.856
 L 458.553,-131.159 L 456.856,-130.456 z
M 49.4467,-131.159 L 48.7437,-132.856 L 49.4467,-134.553 L 51.1437,-135.256 L 52.8408,-134.553 L 53.5437,-132.856
 L 52.8408,-131.159 L 51.1437,-130.456 z
M 315.159,-131.159 L 314.456,-132.856 L 315.159,-134.553 L 316.856,-135.256 L 318.553,-134.553 L 319.256,-132.856
 L 318.553,-131.159 L 316.856,-130.456 z
M 175.159,-131.159 L 174.456,-132.856 L 175.159,-134.553 L 176.856,-135.256 L 178.553,-134.553 L 179.256,-132.856
 L 178.553,-131.159 L 176.856,-130.456 z
M 387.728,-10.3287 L 375.459,-12.9366 L 364,-18.0385 L 353.852,-25.4113 L 345.459,-34.7329 L 339.187,-45.5958
 L 335.311,-57.5253 L 334,-70 L 335.311,-82.4747 L 339.187,-94.4042 L 345.459,-105.267 L 353.852,-114.589
 L 364,-121.962 L 375.459,-127.063 L 387.728,-129.671 L 400.272,-129.671 L 412.541,-127.063 L 424,-121.962
 L 434.148,-114.589 L 442.541,-105.267 L 448.813,-94.4042 L 452.689,-82.4747 L 454,-70 L 452.689,-57.5253
 L 448.813,-45.5958 L 442.541,-34.7329 L 434.148,-25.4113 L 424,-18.0385 L 412.541,-12.9366 L 400.272,-10.3287
 z
M 107.728,-10.3287 L 95.459,-12.9366 L 84,-18.0385 L 73.8522,-25.4113 L 65.459,-34.7329 L 59.1873,-45.5958
 L 55.3111,-57.5253 L 54,-70 L 55.3111,-82.4747 L 59.1873,-94.4042 L 65.459,-105.267 L 73.8522,-114.589
 L 84,-121.962 L 95.459,-127.063 L 107.728,-129.671 L 120.272,-129.671 L 132.541,-127.063 L 144,-121.962
 L 154.148,-114.589 L 162.541,-105.267 L 168.813,-94.4042 L 172.689,-82.4747 L 174,-70 L 172.689,-57.5253
 L 168.813,-45.5958 L 162.541,-34.7329 L 154.148,-25.4113 L 144,-18.0385 L 132.541,-12.9366 L 120.272,-10.3287
 z
M 247.728,-10.3287 L 235.459,-12.9366 L 224,-18.0385 L 213.852,-25.4113 L 205.459,-34.7329 L 199.187,-45.5958
 L 195.311,-57.5253 L 194,-70 L 195.311,-82.4747 L 199.187,-94.4042 L 205.459,-105.267 L 213.852,-114.589
 L 224,-121.962 L 235.459,-127.063 L 247.728,-129.671 L 260.272,-129.671 L 272.541,-127.063 L 284,-121.962
 L 294.148,-114.589 L 302.541,-105.267 L 308.813,-94.4042 L 312.689,-82.4747 L 314,-70 L 312.689,-57.5253
 L 308.813,-45.5958 L 302.541,-34.7329 L 294.148,-25.4113 L 284,-18.0385 L 272.541,-12.9366 L 260.272,-10.3287
 z
M 455.159,-5.44669 L 454.456,-7.14374 L 455.159,-8.84081 L 456.856,-9.54375 L 458.553,-8.84081 L 459.256,-7.14374
 L 458.553,-5.44669 L 456.856,-4.74374 z
M 329.447,-5.44669 L 328.744,-7.14374 L 329.447,-8.84081 L 331.144,-9.54375 L 332.841,-8.84081 L 333.544,-7.14374
 L 332.841,-5.44669 L 331.144,-4.74374 z
M 189.447,-5.44669 L 188.744,-7.14374 L 189.447,-8.84081 L 191.144,-9.54375 L 192.841,-8.84081 L 193.544,-7.14374
 L 192.841,-5.44669 L 191.144,-4.74374 z
M 49.4467,-5.44669 L 48.7437,-7.14374 L 49.4467,-8.84081 L 51.1437,-9.54375 L 52.8408,-8.84081 L 53.5437,-7.14374
 L 52.8408,-5.44669 L 51.1437,-4.74374 z
M 315.159,-5.44669 L 314.456,-7.14374 L 315.159,-8.84081 L 316.856,-9.54375 L 318.553,-8.84081 L 319.256,-7.14374
 L 318.553,-5.44669 L 316.856,-4.74374 z
M 175.159,-5.44669 L 174.456,-7.14374 L 175.159,-8.84081 L 176.856,-9.54375 L 178.553,-8.84081 L 179.256,-7.14374
 L 178.553,-5.44669 L 176.856,-4.74374 z
" stroke="black" fill="lightgray" stroke-width="0.5"/>
</svg>
