<?xml version="1.0" standalone="no"?>
<!DOCTYPE svg PUBLIC "-//W3C//DTD SVG 1.1//EN" "http://www.w3.org/Graphics/SVG/1.1/DTD/svg11.dtd">
<svg width="610mm" height="191mm" viewBox="0 -191 610 191" xmlns="http://www.w3.org/2000/svg" version="1.1">
<title>OpenSCAD Model</title>
<path d="
M 609.6,-190.8 L 0,-190.8 L 0,-0 L 609.6,-0 z
M 539.75,-25.4 L 539.75,-165.4 L 577.85,-165.4 L 577.85,-25.4 z
M 259.447,-156.559 L 258.744,-158.256 L 259.447,-159.953 L 261.144,-160.656 L 262.841,-159.953 L 263.544,-158.256
 L 262.841,-156.559 L 261.144,-155.856 z
M 385.159,-156.559 L 384.456,-158.256 L 385.159,-159.953 L 386.856,-160.656 L 388.553,-159.953 L 389.256,-158.256
 L 388.553,-156.559 L 386.856,-155.856 z
M 119.447,-156.559 L 118.744,-158.256 L 119.447,-159.953 L 121.144,-160.656 L 122.841,-159.953 L 123.544,-158.256
 L 122.841,-156.559 L 121.144,-155.856 z
M 245.159,-156.559 L 244.456,-158.256 L 245.159,-159.953 L 246.856,-160.656 L 248.553,-159.953 L 249.256,-158.256
 L 248.553,-156.559 L 246.856,-155.856 z
M 317.728,-35.7287 L 305.459,-38.3366 L 294,-43.4385 L 283.852,-50.8113 L 275.459,-60.1329 L 269.187,-70.9958
 L 265.311,-82.9253 L 264,-95.4 L 265.311,-107.875 L 269.187,-119.804 L 275.459,-130.667 L 283.852,-139.989
 L 294,-147.362 L 305.459,-152.463 L 317.728,-155.071 L 330.272,-155.071 L 342.541,-152.463 L 354,-147.362
 L 364.148,-139.989 L 372.541,-130.667 L 378.813,-119.804 L 382.689,-107.875 L 384,-95.4 L 382.689,-82.9253
 L 378.813,-70.9958 L 372.541,-60.1329 L 364.148,-50.8113 L 354,-43.4385 L 342.541,-38.3366 L 330.272,-35.7287
 z
M 177.728,-35.7287 L 165.459,-38.3366 L 154,-43.4385 L 143.852,-50.8113 L 135.459,-60.1329 L 129.187,-70.9958
 L 125.311,-82.9253 L 124,-95.4 L 125.311,-107.875 L 129.187,-119.804 L 135.459,-130.667 L 143.852,-139.989
 L 154,-147.362 L 165.459,-152.463 L 177.728,-155.071 L 190.272,-155.071 L 202.541,-152.463 L 214,-147.362
 L 224.148,-139.989 L 232.541,-130.667 L 238.813,-119.804 L 242.689,-107.875 L 244,-95.4 L 242.689,-82.9253
 L 238.813,-70.9958 L 232.541,-60.1329 L 224.148,-50.8113 L 214,-43.4385 L 202.541,-38.3366 L 190.272,-35.7287
 z
M 385.159,-30.8467 L 384.456,-32.5437 L 385.159,-34.2408 L 386.856,-34.9437 L 388.553,-34.2408 L 389.256,-32.5437
 L 388.553,-30.8467 L 386.856,-30.1437 z
M 245.159,-30.8467 L 244.456,-32.5437 L 245.159,-34.2408 L 246.856,-34.9437 L 248.553,-34.2408 L 249.256,-32.5437
 L 248.553,-30.8467 L 246.856,-30.1437 z
M 119.447,-30.8467 L 118.744,-32.5437 L 119.447,-34.2408 L 121.144,-34.9437 L 122.841,-34.2408 L 123.544,-32.5437
 L 122.841,-30.8467 L 121.144,-30.1437 z
M 259.447,-30.8467 L 258.744,-32.5437 L 259.447,-34.2408 L 261.144,-34.9437 L 262.841,-34.2408 L 263.544,-32.5437
 L 262.841,-30.8467 L 261.144,-30.1437 z
" stroke="black" fill="lightgray" stroke-width="0.5"/>
</svg>
