<?xml version="1.0" standalone="no"?>
<!DOCTYPE svg PUBLIC "-//W3C//DTD SVG 1.1//EN" "http://www.w3.org/Graphics/SVG/1.1/DTD/svg11.dtd">
<svg width="508mm" height="191mm" viewBox="0 -191 508 191" xmlns="http://www.w3.org/2000/svg" version="1.1">
<title>OpenSCAD Model</title>
<path d="
M 508,-190.8 L 0,-190.8 L 0,-0 L 508,-0 z
M 49.4467,-156.559 L 48.7437,-158.256 L 49.4467,-159.953 L 51.1437,-160.656 L 52.8408,-159.953 L 53.5437,-158.256
 L 52.8408,-156.559 L 51.1437,-155.856 z
M 329.447,-156.559 L 328.744,-158.256 L 329.447,-159.953 L 331.144,-160.656 L 332.841,-159.953 L 333.544,-158.256
 L 332.841,-156.559 L 331.144,-155.856 z
M 189.447,-156.559 L 188.744,-158.256 L 189.447,-159.953 L 191.144,-160.656 L 192.841,-159.953 L 193.544,-158.256
 L 192.841,-156.559 L 191.144,-155.856 z
M 175.159,-156.559 L 174.456,-158.256 L 175.159,-159.953 L 176.856,-160.656 L 178.553,-159.953 L 179.256,-158.256
 L 178.553,-156.559 L 176.856,-155.856 z
M 315.159,-156.559 L 314.456,-158.256 L 315.159,-159.953 L 316.856,-160.656 L 318.553,-159.953 L 319.256,-158.256
 L 318.553,-156.559 L 316.856,-155.856 z
M 455.159,-156.559 L 454.456,-158.256 L 455.159,-159.953 L 456.856,-160.656 L 458.553,-159.953 L 459.256,-158.256
 L 458.553,-156.559 L 456.856,-155.856 z
M 247.728,-35.7287 L 235.459,-38.3366 L 224,-43.4385 L 213.852,-50.8113 L 205.459,-60.1329 L 199.187,-70.9958
 L 195.311,-82.9253 L 194,-95.4 L 195.311,-107.875 L 199.187,-119.804 L 205.459,-130.667 L 213.852,-139.989
 L 224,-147.362 L 235.459,-152.463 L 247.728,-155.071 L 260.272,-155.071 L 272.541,-152.463 L 284,-147.362
 L 294.148,-139.989 L 302.541,-130.667 L 308.813,-119.804 L 312.689,-107.875 L 314,-95.4 L 312.689,-82.9253
 L 308.813,-70.9958 L 302.541,-60.1329 L 294.148,-50.8113 L 284,-43.4385 L 272.541,-38.3366 L 260.272,-35.7287
 z
M 387.728,-35.7287 L 375.459,-38.3366 L 364,-43.4385 L 353.852,-50.8113 L 345.459,-60.1329 L 339.187,-70.9958
 L 335.311,-82.9253 L 334,-95.4 L 335.311,-107.875 L 339.187,-119.804 L 345.459,-130.667 L 353.852,-139.989
 L 364,-147.362 L 375.459,-152.463 L 387.728,-155.071 L 400.272,-155.071 L 412.541,-152.463 L 424,-147.362
 L 434.148,-139.989 L 442.541,-130.667 L 448.813,-119.804 L 452.689,-107.875 L 454,-95.4 L 452.689,-82.9253
 L 448.813,-70.9958 L 442.541,-60.1329 L 434.148,-50.8113 L 424,-43.4385 L 412.541,-38.3366 L 400.272,-35.7287
 z
M 107.728,-35.7287 L 95.459,-38.3366 L 84,-43.4385 L 73.8522,-50.8113 L 65.459,-60.1329 L 59.1873,-70.9958
 L 55.3111,-82.9253 L 54,-95.4 L 55.3111,-107.875 L 59.1873,-119.804 L 65.459,-130.667 L 73.8522,-139.989
 L 84,-147.362 L 95.459,-152.463 L 107.728,-155.071 L 120.272,-155.071 L 132.541,-152.463 L 144,-147.362
 L 154.148,-139.989 L 162.541,-130.667 L 168.813,-119.804 L 172.689,-107.875 L 174,-95.4 L 172.689,-82.9253
 L 168.813,-70.9958 L 162.541,-60.1329 L 154.148,-50.8113 L 144,-43.4385 L 132.541,-38.3366 L 120.272,-35.7287
 z
M 49.4467,-30.8467 L 48.7437,-32.5437 L 49.4467,-34.2408 L 51.1437,-34.9437 L 52.8408,-34.2408 L 53.5437,-32.5437
 L 52.8408,-30.8467 L 51.1437,-30.1437 z
M 455.159,-30.8467 L 454.456,-32.5437 L 455.159,-34.2408 L 456.856,-34.9437 L 458.553,-34.2408 L 459.256,-32.5437
 L 458.553,-30.8467 L 456.856,-30.1437 z
M 329.447,-30.8467 L 328.744,-32.5437 L 329.447,-34.2408 L 331.144,-34.9437 L 332.841,-34.2408 L 333.544,-32.5437
 L 332.841,-30.8467 L 331.144,-30.1437 z
M 315.159,-30.8467 L 314.456,-32.5437 L 315.159,-34.2408 L 316.856,-34.9437 L 318.553,-34.2408 L 319.256,-32.5437
 L 318.553,-30.8467 L 316.856,-30.1437 z
M 175.159,-30.8467 L 174.456,-32.5437 L 175.159,-34.2408 L 176.856,-34.9437 L 178.553,-34.2408 L 179.256,-32.5437
 L 178.553,-30.8467 L 176.856,-30.1437 z
M 189.447,-30.8467 L 188.744,-32.5437 L 189.447,-34.2408 L 191.144,-34.9437 L 192.841,-34.2408 L 193.544,-32.5437
 L 192.841,-30.8467 L 191.144,-30.1437 z
" stroke="black" fill="lightgray" stroke-width="0.5"/>
</svg>
